<svg width="14" height="13" viewBox="0 0 14 13" fill="none" xmlns="http://www.w3.org/2000/svg">
<path d="M1.7928 0.041748C0.968032 0.041748 0.297302 0.661665 0.297302 1.42395V11.0993C0.297302 11.8616 0.968032 12.4815 1.7928 12.4815H6.74371H8.83214H12.2613C13.086 12.4815 13.7568 11.8616 13.7568 11.0993V1.42395C13.7568 0.661665 13.086 0.041748 12.2613 0.041748H1.7928ZM1.7928 1.42395H12.2613L12.2627 11.0993H8.83214V8.35925H10.6007L10.8636 6.47627H8.84383V5.27629C8.84382 4.7317 9.00804 4.36382 9.85299 4.36382H10.9206V2.68332C10.4009 2.63425 9.87912 2.61039 9.35644 2.61178C7.80561 2.61178 6.74371 3.4866 6.74371 5.09272V6.47897H4.99117V8.36194H6.74371V11.0993H1.7928V1.42395Z" fill="white"/>
</svg>
