<svg width="16" height="13" viewBox="0 0 16 13" fill="none" xmlns="http://www.w3.org/2000/svg">
<path id="Gmail" d="M0.779999 2.45505V2.45485C0.779999 1.76876 1.33519 1.20935 2.01802 1.20935H13.982C14.6664 1.20935 15.2275 1.77039 15.2275 2.45485V11.4278C15.2275 12.1123 14.6664 12.6733 13.982 12.6733H2.01802C1.3336 12.6733 0.772575 12.1123 0.772522 11.4279C0.772522 11.4279 0.772522 11.4279 0.772522 11.4278L0.779999 2.45505ZM13.982 11.6778H14.232V11.4278V3.95034V3.49928L13.8495 3.73834L8 7.39427L2.15052 3.73834L1.76802 3.49928V3.95034V11.4278V11.6778H2.01802H13.982ZM7.8675 6.40558L8 6.4884L8.1325 6.40558L14.1145 2.66685L14.8537 2.20485H13.982H2.01802H1.14632L1.88552 2.66685L7.8675 6.40558Z" fill="white" stroke="white" stroke-width="0.5"/>
</svg>
